<?xml version="1.0" standalone="no"?><!DOCTYPE svg PUBLIC "-//W3C//DTD SVG 1.1//EN" "http://www.w3.org/Graphics/SVG/1.1/DTD/svg11.dtd"><svg t="1730184304907" class="icon" viewBox="0 0 1024 1024" version="1.1" xmlns="http://www.w3.org/2000/svg" p-id="5125" xmlns:xlink="http://www.w3.org/1999/xlink" width="32" height="32"><path d="M511.102976 1020.16c-81.12128 0-158.18752-18.251776-229.67296-54.755328-68.450304-34.985984-128.784384-85.684224-174.91968-147.034112-13.688832-18.251776-10.141696-44.61568 8.11008-58.304512 18.251776-13.694976 44.617728-10.141696 58.308608 8.11008 38.529024 51.21024 89.23136 93.796352 146.52416 122.69568 59.828224 30.420992 124.215296 46.139392 192.1536 46.139392 113.063936 0 219.537408-44.109824 299.644928-124.22144 80.105472-80.105472 124.213248-186.574848 124.213248-299.638784s-44.107776-219.537408-124.213248-299.644928C731.14624 133.400576 624.672768 89.2928 511.608832 89.2928s-219.531264 44.107776-299.638784 124.215296c-80.10752 80.10752-124.22144 186.580992-124.22144 299.644928 0 41.066496 6.084608 81.625088 17.240064 120.666112 6.588416 22.31296-6.084608 45.125632-28.393472 51.714048-22.308864 6.59456-45.123584-6.08256-51.714048-28.391424C11.196416 611.004416 4.096 562.331648 4.096 513.153024c0-68.44416 13.185024-134.862848 40.056832-197.228544 25.346048-60.33408 61.855744-114.583552 108.494848-161.2288 46.645248-46.641152 100.896768-83.1488 161.230848-108.494848C376.240128 19.326976 442.660864 6.144 511.102976 6.144c68.44416 0 134.862848 13.182976 197.228544 40.056832 60.33408 25.346048 114.583552 61.853696 161.224704 108.494848 46.645248 46.645248 83.154944 100.89472 108.500992 161.2288 26.368 62.365696 40.056832 128.784384 40.056832 197.228544s-13.185024 134.862848-40.056832 197.228544c-25.346048 60.33408-61.853696 114.581504-108.500992 161.224704-46.639104 46.645248-100.890624 83.152896-161.224704 108.498944-62.365696 26.871808-128.784384 40.054784-197.228544 40.054784z m270.235648-646.434816c-16.224256-16.224256-42.586112-16.224256-59.318272 0l-178.976768 178.970624-132.835328-132.329472c-8.11008-8.108032-19.267584-12.167168-30.420992-12.167168s-21.803008 4.057088-30.420992 12.167168L222.6176 546.613248c-16.224256 16.226304-16.224256 42.58816 0 59.316224 16.226304 16.226304 42.58816 16.226304 59.318272 0l97.85344-97.845248 132.33152 132.325376c8.615936 8.620032 19.771392 12.675072 30.420992 12.16512 11.15136 0.509952 22.308864-3.545088 30.420992-12.16512l207.364096-207.364096c17.238016-16.226304 17.238016-42.58816 1.011712-59.32032z m0 0" fill="#3a81f6" p-id="5126"></path></svg>